<svg width="264" height="61" viewBox="0 0 264 61" fill="none" xmlns="http://www.w3.org/2000/svg">
<path d="M24.659 48.768C21.1177 48.768 17.8537 48.2133 14.867 47.104C11.923 45.952 9.34166 44.3307 7.123 42.24C4.947 40.1493 3.24033 37.696 2.003 34.88C0.80833 32.064 0.210996 28.9707 0.210996 25.6C0.210996 22.2293 0.80833 19.136 2.003 16.32C3.24033 13.504 4.96833 11.0507 7.187 8.96C9.40566 6.86933 12.0083 5.26933 14.995 4.16C17.9817 3.008 21.267 2.432 24.851 2.432C28.819 2.432 32.3817 3.09333 35.539 4.416C38.739 5.73866 41.427 7.65866 43.603 10.176L36.947 16.32C35.3257 14.6133 33.555 13.3547 31.635 12.544C29.715 11.6907 27.6243 11.264 25.363 11.264C23.187 11.264 21.203 11.6053 19.411 12.288C17.619 12.9707 16.0617 13.952 14.739 15.232C13.459 16.512 12.4563 18.0267 11.731 19.776C11.0483 21.5253 10.707 23.4667 10.707 25.6C10.707 27.6907 11.0483 29.6107 11.731 31.36C12.4563 33.1093 13.459 34.6453 14.739 35.968C16.0617 37.248 17.5977 38.2293 19.347 38.912C21.139 39.5947 23.1017 39.936 25.235 39.936C27.283 39.936 29.267 39.616 31.187 38.976C33.1497 38.2933 35.0483 37.1627 36.883 35.584L42.771 43.072C40.339 44.9067 37.5017 46.3147 34.259 47.296C31.059 48.2773 27.859 48.768 24.659 48.768ZM33.299 41.728V24.896H42.771V43.072L33.299 41.728ZM50.418 48V13.568H59.954V23.296L58.61 20.48C59.634 18.048 61.2767 16.2133 63.538 14.976C65.7993 13.696 68.5513 13.056 71.794 13.056V22.272C71.3673 22.2293 70.9833 22.208 70.642 22.208C70.3007 22.1653 69.938 22.144 69.554 22.144C66.8233 22.144 64.6047 22.9333 62.898 24.512C61.234 26.048 60.402 28.4587 60.402 31.744V48H50.418ZM95.3205 48V41.28L94.6805 39.808V27.776C94.6805 25.6427 94.0192 23.9787 92.6965 22.784C91.4165 21.5893 89.4325 20.992 86.7445 20.992C84.9098 20.992 83.0965 21.2907 81.3045 21.888C79.5552 22.4427 78.0618 23.2107 76.8245 24.192L73.2405 17.216C75.1178 15.8933 77.3792 14.8693 80.0245 14.144C82.6698 13.4187 85.3578 13.056 88.0885 13.056C93.3365 13.056 97.4112 14.2933 100.312 16.768C103.214 19.2427 104.665 23.104 104.665 28.352V48H95.3205ZM84.8245 48.512C82.1365 48.512 79.8325 48.064 77.9125 47.168C75.9925 46.2293 74.5205 44.9707 73.4965 43.392C72.4725 41.8133 71.9605 40.0427 71.9605 38.08C71.9605 36.032 72.4512 34.24 73.4325 32.704C74.4565 31.168 76.0565 29.9733 78.2325 29.12C80.4085 28.224 83.2458 27.776 86.7445 27.776H95.8965V33.6H87.8325C85.4858 33.6 83.8645 33.984 82.9685 34.752C82.1152 35.52 81.6885 36.48 81.6885 37.632C81.6885 38.912 82.1792 39.936 83.1605 40.704C84.1845 41.4293 85.5712 41.792 87.3205 41.792C88.9845 41.792 90.4778 41.408 91.8005 40.64C93.1232 39.8293 94.0832 38.656 94.6805 37.12L96.2165 41.728C95.4912 43.9467 94.1685 45.632 92.2485 46.784C90.3285 47.936 87.8538 48.512 84.8245 48.512ZM132.773 48.512C129.871 48.512 127.333 47.872 125.157 46.592C122.981 45.312 121.274 43.3707 120.037 40.768C118.842 38.1227 118.245 34.7947 118.245 30.784C118.245 26.7307 118.821 23.4027 119.973 20.8C121.125 18.1973 122.789 16.256 124.965 14.976C127.141 13.696 129.743 13.056 132.773 13.056C136.015 13.056 138.917 13.8027 141.477 15.296C144.079 16.7467 146.127 18.7947 147.621 21.44C149.157 24.0853 149.925 27.2 149.925 30.784C149.925 34.4107 149.157 37.5467 147.621 40.192C146.127 42.8373 144.079 44.8853 141.477 46.336C138.917 47.7867 136.015 48.512 132.773 48.512ZM112.421 60.416V13.568H121.957V20.608L121.765 30.848L122.405 41.024V60.416H112.421ZM131.045 40.32C132.709 40.32 134.181 39.936 135.461 39.168C136.783 38.4 137.829 37.312 138.597 35.904C139.407 34.4533 139.812 32.7467 139.812 30.784C139.812 28.7787 139.407 27.072 138.597 25.664C137.829 24.256 136.783 23.168 135.461 22.4C134.181 21.632 132.709 21.248 131.045 21.248C129.381 21.248 127.887 21.632 126.565 22.4C125.242 23.168 124.197 24.256 123.429 25.664C122.661 27.072 122.277 28.7787 122.277 30.784C122.277 32.7467 122.661 34.4533 123.429 35.904C124.197 37.312 125.242 38.4 126.565 39.168C127.887 39.936 129.381 40.32 131.045 40.32ZM176.256 13.056C178.987 13.056 181.419 13.6107 183.552 14.72C185.728 15.7867 187.435 17.4507 188.672 19.712C189.909 21.9307 190.528 24.7893 190.528 28.288V48H180.544V29.824C180.544 27.0507 179.925 25.0027 178.688 23.68C177.493 22.3573 175.787 21.696 173.568 21.696C171.989 21.696 170.56 22.0373 169.28 22.72C168.043 23.36 167.061 24.3627 166.336 25.728C165.653 27.0933 165.312 28.8427 165.312 30.976V48H155.328V0.511997H165.312V23.104L163.072 20.224C164.309 17.92 166.08 16.1493 168.384 14.912C170.688 13.6747 173.312 13.056 176.256 13.056ZM199.002 48V3.2H209.37V48H199.002ZM218.722 48V3.2H239.074C243.938 3.2 248.226 4.13866 251.938 6.016C255.65 7.85066 258.551 10.432 260.642 13.76C262.733 17.088 263.778 21.0347 263.778 25.6C263.778 30.1227 262.733 34.0693 260.642 37.44C258.551 40.768 255.65 43.3707 251.938 45.248C248.226 47.0827 243.938 48 239.074 48H218.722ZM229.09 39.488H238.562C241.549 39.488 244.13 38.9333 246.306 37.824C248.525 36.672 250.231 35.0507 251.426 32.96C252.663 30.8693 253.282 28.416 253.282 25.6C253.282 22.7413 252.663 20.288 251.426 18.24C250.231 16.1493 248.525 14.5493 246.306 13.44C244.13 12.288 241.549 11.712 238.562 11.712H229.09V39.488Z" fill="white"/>
</svg>
