<svg width="34" height="35" viewBox="0 0 34 35" fill="none" xmlns="http://www.w3.org/2000/svg">
<path opacity="0.5" fill-rule="evenodd" clip-rule="evenodd" d="M17 34.6667C26.3888 34.6667 34 27.0556 34 17.6667C34 8.27791 26.3888 0.666748 17 0.666748C7.61116 0.666748 0 8.27791 0 17.6667C0 27.0556 7.61116 34.6667 17 34.6667Z" fill="#002B52"/>
<path d="M27.4609 19.8911C27.4609 14.6603 24.8456 10.9241 21.4829 10.9241C18.8675 10.9241 16.9994 13.9131 16.9994 13.9131C15.5049 16.1548 15.5049 20.2647 17.7467 15.7812C17.7467 15.7812 19.6148 12.7922 21.4829 12.7922C24.0983 12.7922 25.4765 17.2757 25.4765 19.8911C25.4765 20.6384 25.2192 22.1329 23.7247 22.1329V24.3746C25.2192 24.3746 27.4609 23.2537 27.4609 19.8911Z" fill="url(#paint0_radial_26_9721)"/>
<path d="M12.5161 10.9241V13.1658C10.1249 13.4647 8.77984 17.2757 8.77984 19.8911C8.77984 20.6384 9.15347 22.1329 10.2743 22.1329C12.1425 22.1329 14.2906 18.008 16.2524 14.9911C17.2938 13.3895 18.3304 14.7646 17.5399 16.1548C15.6671 19.4488 13.7917 24.3746 10.2743 24.3746C8.77984 24.3746 6.53809 23.2537 6.53809 19.8911C6.53809 13.1658 10.648 10.9241 12.5161 10.9241Z" fill="url(#paint1_radial_26_9721)"/>
<path d="M23.7249 22.1329C21.1095 22.1329 18.1205 10.9241 12.5161 10.9241V13.1658C16.9996 13.1658 18.8677 24.3746 23.7249 24.3746V22.1329Z" fill="#0768E1"/>
<defs>
<radialGradient id="paint0_radial_26_9721" cx="0" cy="0" r="1" gradientUnits="userSpaceOnUse" gradientTransform="translate(23.7247 23.6274) rotate(-101.31) scale(13.3359 10.3724)">
<stop stop-color="#0768E1"/>
<stop offset="1" stop-color="#0082FB"/>
</radialGradient>
<radialGradient id="paint1_radial_26_9721" cx="0" cy="0" r="1" gradientUnits="userSpaceOnUse" gradientTransform="translate(12.5161 12.4186) rotate(154.537) scale(8.69033 4.558)">
<stop stop-color="#0768E1"/>
<stop offset="1" stop-color="#0082FB"/>
</radialGradient>
</defs>
</svg>
