<svg width="34" height="34" viewBox="0 0 34 34" fill="none" xmlns="http://www.w3.org/2000/svg">
<path opacity="0.5" fill-rule="evenodd" clip-rule="evenodd" d="M17 34C26.3888 34 34 26.3888 34 17C34 7.61116 26.3888 0 17 0C7.61116 0 0 7.61116 0 17C0 26.3888 7.61116 34 17 34Z" fill="#523100"/>
<path d="M26.2713 6.86548L18.2339 12.8932L19.7285 9.34085L26.2713 6.86548Z" fill="#E17726" stroke="#E17726" stroke-width="0.25" stroke-linecap="round" stroke-linejoin="round"/>
<path d="M7.72998 6.86548L15.6959 12.9494L14.2728 9.34085L7.72998 6.86548Z" fill="#E27625" stroke="#E27625" stroke-width="0.25" stroke-linecap="round" stroke-linejoin="round"/>
<path d="M23.3778 20.8416L21.2393 24.1528L25.8184 25.4307L27.1302 20.9139L23.3778 20.8416Z" fill="#E27625" stroke="#E27625" stroke-width="0.25" stroke-linecap="round" stroke-linejoin="round"/>
<path d="M6.87891 20.9139L8.1827 25.4307L12.754 24.1528L10.6233 20.8416L6.87891 20.9139Z" fill="#E27625" stroke="#E27625" stroke-width="0.25" stroke-linecap="round" stroke-linejoin="round"/>
<path d="M12.5093 15.2483L11.2373 17.1932L15.7688 17.4022L15.6178 12.4595L12.5093 15.2483Z" fill="#E27625" stroke="#E27625" stroke-width="0.25" stroke-linecap="round" stroke-linejoin="round"/>
<path d="M21.4933 15.2484L18.3372 12.4033L18.2339 17.4023L22.7653 17.1933L21.4933 15.2484Z" fill="#E27625" stroke="#E27625" stroke-width="0.25" stroke-linecap="round" stroke-linejoin="round"/>
<path d="M12.7559 24.153L15.4986 22.8109L13.1375 20.9463L12.7559 24.153Z" fill="#E27625" stroke="#E27625" stroke-width="0.25" stroke-linecap="round" stroke-linejoin="round"/>
<path opacity="0.8" d="M18.5029 22.8109L21.2377 24.153L20.864 20.9463L18.5029 22.8109Z" fill="#E27625" stroke="#E27625" stroke-width="0.25" stroke-linecap="round" stroke-linejoin="round"/>
<path d="M21.2377 24.1534L18.5029 22.8113L18.7255 24.6115L18.7016 25.375L21.2377 24.1534Z" fill="#D5BFB2" stroke="#D5BFB2" stroke-width="0.25" stroke-linecap="round" stroke-linejoin="round"/>
<path d="M12.7559 24.1534L15.2999 25.375L15.284 24.6115L15.4986 22.8113L12.7559 24.1534Z" fill="#D5BFB2" stroke="#D5BFB2" stroke-width="0.25" stroke-linecap="round" stroke-linejoin="round"/>
<path d="M15.3489 19.757L13.0752 19.0819L14.6811 18.3345L15.3489 19.757Z" fill="#233447" stroke="#233447" stroke-width="0.25" stroke-linecap="round" stroke-linejoin="round"/>
<path d="M18.6553 19.757L19.3231 18.3345L20.9369 19.0819L18.6553 19.757Z" fill="#233447" stroke="#233447" stroke-width="0.25" stroke-linecap="round" stroke-linejoin="round"/>
<path d="M12.7561 24.1528L13.1536 20.8416L10.6255 20.9139L12.7561 24.1528Z" fill="#CC6228" stroke="#CC6228" stroke-width="0.25" stroke-linecap="round" stroke-linejoin="round"/>
<path d="M20.8491 20.8416L21.2387 24.1528L23.3772 20.9139L20.8491 20.8416Z" fill="#CC6228" stroke="#CC6228" stroke-width="0.25" stroke-linecap="round" stroke-linejoin="round"/>
<path d="M22.7653 17.1931L18.2339 17.4021L18.6552 19.7569L19.323 18.3344L20.9369 19.0818L22.7653 17.1931Z" fill="#CC6228" stroke="#CC6228" stroke-width="0.25" stroke-linecap="round" stroke-linejoin="round"/>
<path d="M13.0737 19.0818L14.6796 18.3344L15.3475 19.7569L15.7688 17.4021L11.2373 17.1931L13.0737 19.0818Z" fill="#CC6228" stroke="#CC6228" stroke-width="0.25" stroke-linecap="round" stroke-linejoin="round"/>
<path d="M11.2373 17.1931L13.1374 20.9464L13.0737 19.0818L11.2373 17.1931Z" fill="#E27525" stroke="#E27525" stroke-width="0.25" stroke-linecap="round" stroke-linejoin="round"/>
<path d="M20.9353 19.0818L20.8638 20.9464L22.7638 17.1931L20.9353 19.0818Z" fill="#E27525" stroke="#E27525" stroke-width="0.25" stroke-linecap="round" stroke-linejoin="round"/>
<path d="M15.7686 17.4021L15.3472 19.757L15.8798 22.5377L15.9991 18.8729L15.7686 17.4021Z" fill="#E27525" stroke="#E27525" stroke-width="0.25" stroke-linecap="round" stroke-linejoin="round"/>
<path d="M18.2334 17.4021L18.0107 18.8649L18.1221 22.5377L18.6547 19.757L18.2334 17.4021Z" fill="#E27525" stroke="#E27525" stroke-width="0.25" stroke-linecap="round" stroke-linejoin="round"/>
<path d="M18.6542 19.7569L18.1216 22.5376L18.5032 22.8109L20.8644 20.9464L20.9359 19.0818L18.6542 19.7569Z" fill="#F5841F" stroke="#F5841F" stroke-width="0.25" stroke-linecap="round" stroke-linejoin="round"/>
<path d="M13.0752 19.0818L13.1388 20.9464L15.4999 22.8109L15.8816 22.5376L15.3489 19.7569L13.0752 19.0818Z" fill="#F5841F" stroke="#F5841F" stroke-width="0.25" stroke-linecap="round" stroke-linejoin="round"/>
<path d="M18.7025 25.3747L18.7263 24.6112L18.5196 24.4344H15.4827L15.284 24.6112L15.2999 25.3747L12.7559 24.1531L13.6463 24.8925L15.4509 26.1543H18.5434L20.356 24.8925L21.2384 24.1531L18.7025 25.3747Z" fill="#C0AC9D" stroke="#C0AC9D" stroke-width="0.25" stroke-linecap="round" stroke-linejoin="round"/>
<path d="M18.5044 22.8108L18.1228 22.5376H15.8809L15.4993 22.8108L15.2847 24.6111L15.4834 24.4343H18.5203L18.727 24.6111L18.5044 22.8108Z" fill="#161616" stroke="#161616" stroke-width="0.25" stroke-linecap="round" stroke-linejoin="round"/>
<path d="M26.6119 13.287L27.2876 9.95969L26.27 6.86548L18.5029 12.6923L21.4921 15.248L25.7135 16.4937L26.6437 15.3927L26.2383 15.0953L26.8822 14.5006L26.3893 14.1148L27.0332 13.6165L26.6119 13.287Z" fill="#763E1A" stroke="#763E1A" stroke-width="0.25" stroke-linecap="round" stroke-linejoin="round"/>
<path d="M6.71338 9.95969L7.39708 13.287L6.95983 13.6165L7.61173 14.1148L7.11883 14.5006L7.76277 15.0953L7.35732 15.3927L8.28747 16.4937L12.5089 15.248L15.4981 12.6923L7.73098 6.86548L6.71338 9.95969Z" fill="#763E1A" stroke="#763E1A" stroke-width="0.25" stroke-linecap="round" stroke-linejoin="round"/>
<path d="M25.7133 16.4937L21.4918 15.248L22.7638 17.193L20.8638 20.9462L23.376 20.9141H27.1283L25.7133 16.4937Z" fill="#F5841F" stroke="#F5841F" stroke-width="0.25" stroke-linecap="round" stroke-linejoin="round"/>
<path d="M12.5075 15.248L8.28605 16.4937L6.87891 20.9141H10.6233L13.1355 20.9462L11.2355 17.193L12.5075 15.248Z" fill="#F5841F" stroke="#F5841F" stroke-width="0.25" stroke-linecap="round" stroke-linejoin="round"/>
<path d="M18.232 17.4019L18.5023 12.6922L19.7266 9.34082H14.2729L15.4972 12.6922L15.7675 17.4019L15.8709 18.8806L15.8788 22.5375H18.1207L18.1287 18.8806L18.232 17.4019Z" fill="#F5841F" stroke="#F5841F" stroke-width="0.25" stroke-linecap="round" stroke-linejoin="round"/>
</svg>
