<svg width="34" height="34" viewBox="0 0 34 34" fill="none" xmlns="http://www.w3.org/2000/svg">
<path opacity="0.5" fill-rule="evenodd" clip-rule="evenodd" d="M17 34C26.3888 34 34 26.3888 34 17C34 7.61116 26.3888 0 17 0C7.61116 0 0 7.61116 0 17C0 26.3888 7.61116 34 17 34Z" fill="#002B52"/>
<path fill-rule="evenodd" clip-rule="evenodd" d="M8.30615 16.8879C13.4064 14.6299 16.8074 13.1413 18.5091 12.4221C23.3677 10.3686 24.3773 10.0119 25.0354 10.0001C25.1801 9.99753 25.5037 10.034 25.7133 10.2068C25.8903 10.3528 25.939 10.5499 25.9623 10.6883C25.9856 10.8266 26.0146 11.1418 25.9916 11.3881C25.7283 14.1992 24.589 21.021 24.0094 24.1694C23.7642 25.5017 23.2813 25.9484 22.8138 25.9921C21.7978 26.0871 21.0263 25.3098 20.0422 24.6543C18.5024 23.6287 17.6325 22.9902 16.1378 21.9893C14.4105 20.8327 15.5303 20.1969 16.5147 19.158C16.7723 18.8861 21.2488 14.7487 21.3354 14.3733C21.3463 14.3264 21.3563 14.1514 21.254 14.059C21.1517 13.9666 21.0007 13.9982 20.8918 14.0234C20.7373 14.059 18.2775 15.7111 13.5121 18.9798C12.8139 19.467 12.1815 19.7044 11.6148 19.6919C10.9901 19.6782 9.78851 19.333 8.89523 19.038C7.79958 18.6761 6.92878 18.4847 7.0046 17.8701C7.0441 17.55 7.47795 17.2226 8.30615 16.8879Z" fill="#28A7E8"/>
</svg>
