<svg width="34" height="35" viewBox="0 0 34 35" fill="none" xmlns="http://www.w3.org/2000/svg">
<path opacity="0.5" fill-rule="evenodd" clip-rule="evenodd" d="M17 34.6667C26.3888 34.6667 34 27.0556 34 17.6667C34 8.27791 26.3888 0.666748 17 0.666748C7.61116 0.666748 0 8.27791 0 17.6667C0 27.0556 7.61116 34.6667 17 34.6667Z" fill="#003E52"/>
<path d="M25.3191 13.3032C25.3319 13.4924 25.3319 13.6815 25.3319 13.8725C25.3319 19.6895 21.0138 26.3983 13.118 26.3983V26.3948C10.7856 26.3983 8.50162 25.7132 6.53809 24.4212C6.87724 24.4631 7.2181 24.484 7.5598 24.4849C9.49273 24.4866 11.3704 23.8215 12.8911 22.5967C11.0542 22.561 9.44343 21.3327 8.88072 19.5396C9.52418 19.6668 10.1872 19.6407 10.8188 19.4637C8.81612 19.0488 7.37535 17.2443 7.37535 15.1487C7.37535 15.1295 7.37535 15.1112 7.37535 15.0929C7.97206 15.4337 8.64017 15.6229 9.32358 15.6438C7.4374 14.351 6.85599 11.7777 7.99501 9.76574C10.1744 12.516 13.39 14.188 16.8419 14.365C16.496 12.836 16.9686 11.2337 18.0838 10.1589C19.8127 8.49214 22.5319 8.57757 24.1572 10.3498C25.1185 10.1554 26.0399 9.79363 26.8832 9.28106C26.5627 10.3001 25.892 11.1657 24.9961 11.7158C25.847 11.6129 26.6783 11.3793 27.4612 11.0228C26.8849 11.9084 26.1589 12.6799 25.3191 13.3032Z" fill="#1D9BF0"/>
</svg>
