<svg width="34" height="34" viewBox="0 0 34 34" fill="none" xmlns="http://www.w3.org/2000/svg">
<path opacity="0.2" d="M17 34C26.3888 34 34 26.3888 34 17C34 7.61116 26.3888 0 17 0C7.61116 0 0 7.61116 0 17C0 26.3888 7.61116 34 17 34Z" fill="#5943E3"/>
<path d="M23.4434 16.3571L20.872 18.9285H18.3006L16.0506 21.1785V18.9285H13.1577V9.28564H23.4434V16.3571Z" fill="white"/>
<path d="M12.5151 8L9.30078 11.2143V22.7857H13.1579V26L16.3722 22.7857H18.9436L24.7294 17V8H12.5151ZM23.4436 16.3571L20.8722 18.9286H18.3008L16.0508 21.1786V18.9286H13.1579V9.28571H23.4436V16.3571Z" fill="#8C44F7"/>
<path d="M21.5152 11.5356H20.2295V15.3928H21.5152V11.5356Z" fill="#9146FF"/>
<path d="M17.9796 11.5356H16.6938V15.3928H17.9796V11.5356Z" fill="#9146FF"/>
</svg>
