<svg width="34" height="34" viewBox="0 0 34 34" fill="none" xmlns="http://www.w3.org/2000/svg">
<path d="M7.49785 14.2961C7.77786 14.8946 8.47088 16.0776 8.47088 16.0776L16.4826 2.83325L8.66339 8.29341C8.19747 8.60424 7.81522 9.02496 7.55035 9.51845C7.19423 10.2629 7.00502 11.0762 6.99595 11.9015C6.98688 12.7267 7.15817 13.544 7.49785 14.2961V14.2961Z" fill="url(#paint0_linear_156_2171)"/>
<path d="M4.32336 18.6571C4.41165 19.924 4.76959 21.1574 5.37323 22.2747C5.97686 23.392 6.81225 24.3675 7.82347 25.1358L16.4722 31.1665C16.4722 31.1665 11.0611 23.3682 6.49693 15.6085C6.03485 14.7887 5.72422 13.8924 5.5799 12.9624C5.51601 12.5413 5.51601 12.113 5.5799 11.6919C5.4609 11.9124 5.22989 12.3639 5.22989 12.3639C4.7671 13.3078 4.45192 14.317 4.29536 15.3565C4.20525 16.4553 4.21462 17.56 4.32336 18.6571V18.6571Z" fill="#A0A8D4"/>
<path d="M26.3878 19.7039C26.1078 19.1054 25.4148 17.9224 25.4148 17.9224L17.4031 31.1668L25.2223 25.7101C25.6882 25.3993 26.0705 24.9786 26.3353 24.4851C26.692 23.7401 26.8815 22.9262 26.8906 22.1003C26.8996 21.2744 26.7281 20.4565 26.3878 19.7039V19.7039Z" fill="url(#paint1_linear_156_2171)"/>
<path d="M29.5627 15.3426C29.4744 14.0757 29.1164 12.8423 28.5128 11.725C27.9092 10.6077 27.0738 9.63221 26.0626 8.86393L17.4138 2.83325C17.4138 2.83325 22.8215 10.6315 27.3891 18.3912C27.85 19.2113 28.1594 20.1076 28.3026 21.0373C28.3665 21.4584 28.3665 21.8867 28.3026 22.3078C28.4216 22.0873 28.6526 21.6358 28.6526 21.6358C29.1154 20.692 29.4306 19.6827 29.5872 18.6432C29.6785 17.5445 29.6703 16.4398 29.5627 15.3426Z" fill="#A0A8D4"/>
<path style="mix-blend-mode:color" d="M7.55046 9.51845C7.81532 9.02495 8.19757 8.60423 8.66349 8.29341L16.4827 2.83325L8.47098 16.0811C8.47098 16.0811 7.77096 14.8981 7.49795 14.2996C7.15774 13.547 6.98617 12.7291 6.99523 11.9032C7.0043 11.0773 7.1938 10.2634 7.55046 9.51845V9.51845ZM4.32336 18.6572C4.41165 19.9241 4.76959 21.1575 5.37322 22.2748C5.97686 23.3922 6.81225 24.3676 7.82346 25.1359L16.4722 31.1666C16.4722 31.1666 11.0611 23.3684 6.49693 15.6086C6.03485 14.7888 5.72422 13.8925 5.5799 12.9626C5.51601 12.5414 5.51601 12.1131 5.5799 11.692C5.4609 11.9125 5.22989 12.364 5.22989 12.364C4.7671 13.3079 4.45192 14.3172 4.29536 15.3566C4.20525 16.4554 4.21462 17.5601 4.32336 18.6572V18.6572ZM26.374 19.7072C26.094 19.1087 25.401 17.9257 25.401 17.9257L17.4032 31.1666L25.2225 25.7099C25.6884 25.3991 26.0706 24.9784 26.3355 24.4849C26.6922 23.7399 26.8817 22.926 26.8907 22.1001C26.8998 21.2742 26.7282 20.4564 26.388 19.7037L26.374 19.7072ZM29.5486 15.3461C29.4603 14.0792 29.1024 12.8458 28.4987 11.7285C27.8951 10.6112 27.0597 9.63571 26.0485 8.86743L17.4137 2.83325C17.4137 2.83325 22.8214 10.6315 27.389 18.3912C27.8499 19.2113 28.1593 20.1076 28.3026 21.0373C28.3664 21.4584 28.3664 21.8867 28.3026 22.3078C28.4216 22.0873 28.6526 21.6358 28.6526 21.6358C29.1154 20.692 29.4305 19.6827 29.5871 18.6432C29.6784 17.5445 29.6702 16.4398 29.5626 15.3426L29.5486 15.3461Z" fill="url(#paint2_linear_156_2171)"/>
<defs>
<linearGradient id="paint0_linear_156_2171" x1="16.8326" y1="3.15876" x2="6.54932" y2="14.3066" gradientUnits="userSpaceOnUse">
<stop offset="0.58" stop-color="#A0A8D4"/>
<stop offset="0.73" stop-color="#8791C7"/>
<stop offset="0.91" stop-color="#6470B4"/>
</linearGradient>
<linearGradient id="paint1_linear_156_2171" x1="421.3" y1="1099.46" x2="799.62" y2="805.759" gradientUnits="userSpaceOnUse">
<stop offset="0.58" stop-color="#A0A8D4"/>
<stop offset="0.73" stop-color="#8791C7"/>
<stop offset="0.91" stop-color="#6470B4"/>
</linearGradient>
<linearGradient id="paint2_linear_156_2171" x1="16.9412" y1="2.69325" x2="16.9412" y2="31.2541" gradientUnits="userSpaceOnUse">
<stop stop-color="#513EFF"/>
<stop offset="0.18" stop-color="#5157FF"/>
<stop offset="0.57" stop-color="#5298FF"/>
<stop offset="1" stop-color="#52E5FF"/>
</linearGradient>
</defs>
</svg>
