<svg width="34" height="35" viewBox="0 0 34 35" fill="none" xmlns="http://www.w3.org/2000/svg">
<path opacity="0.5" fill-rule="evenodd" clip-rule="evenodd" d="M17 34.6667C26.3888 34.6667 34 27.0556 34 17.6667C34 8.27791 26.3888 0.666748 17 0.666748C7.61116 0.666748 0 8.27791 0 17.6667C0 27.0556 7.61116 34.6667 17 34.6667Z" fill="#1A5200"/>
<path d="M15.9854 17.4937C16.4407 18.1694 17.6231 18.1187 18.0626 17.4937" stroke="#ABFD2C" stroke-width="0.6"/>
<path d="M16.9878 19.625V25.713" stroke="#ABFD2C" stroke-width="0.6"/>
<path d="M17.0107 19.6704C16.7841 22.4268 14.777 27.3852 8.56104 25.168" stroke="#ABFD2C" stroke-width="0.6"/>
<path d="M16.9893 19.6704C17.2159 22.4268 19.223 27.3852 25.439 25.168" stroke="#ABFD2C" stroke-width="0.6"/>
<path d="M16.9551 19.6704C17.1817 22.4268 18.9252 24.5649 22.5737 23.0798" stroke="#ABFD2C" stroke-width="0.6"/>
<path d="M17.0185 19.6704C16.7919 22.4268 15.0046 24.8885 11.3774 22.9536" stroke="#ABFD2C" stroke-width="0.6"/>
<path d="M20.0025 12.6141C19.2165 7.3175 13.7556 9.19265 14.1665 12.6141C10.7178 9.33327 7.42856 13.3723 9.24467 15.7549C14.0852 22.1053 23.0133 19.4346 24.9586 15.544C26.2945 11.7003 21.2789 10.1769 20.0025 12.6141Z" stroke="#ABFD2C" stroke-width="0.6"/>
<circle cx="15.1826" cy="15.8366" r="0.692326" fill="#ABFD2C"/>
<circle cx="19.8964" cy="15.8366" r="0.692326" fill="#ABFD2C"/>
<path d="M12.8755 16.5144C12.8755 14.4726 16.4575 14.5069 16.4575 16.5144M17.5881 16.5114C17.5881 14.4697 21.1701 14.5039 21.1701 16.5114" stroke="#ABFD2C" stroke-width="0.6"/>
</svg>
