<svg width="34" height="34" viewBox="0 0 34 34" fill="none" xmlns="http://www.w3.org/2000/svg">
<path opacity="0.5" fill-rule="evenodd" clip-rule="evenodd" d="M17 34C26.3888 34 34 26.3888 34 17C34 7.61116 26.3888 0 17 0C7.61116 0 0 7.61116 0 17C0 26.3888 7.61116 34 17 34Z" fill="#003452"/>
<path fill-rule="evenodd" clip-rule="evenodd" d="M22.9829 13.8973C19.8241 10.7435 14.7026 10.7435 11.5437 13.8973L11.1265 14.314C10.9685 14.4716 10.9685 14.7273 11.1265 14.885L12.427 16.1834C12.5059 16.2623 12.634 16.2623 12.7129 16.1834L13.2732 15.6241C15.4769 13.4239 19.0498 13.4239 21.2535 15.6241L21.7766 16.1464C21.8556 16.2252 21.9836 16.2252 22.0626 16.1464L23.3631 14.848C23.5211 14.6903 23.5211 14.4346 23.3631 14.2769L22.9829 13.8973ZM26.8298 17.7383L25.6723 16.5826C25.5144 16.425 25.2583 16.425 25.1004 16.5826L21.3963 20.2809C21.3568 20.3203 21.2928 20.3203 21.2533 20.2809L17.5491 16.5826L17.5491 16.5826C17.3912 16.4249 17.1351 16.4249 16.9771 16.5826L13.2732 20.2809C13.2337 20.3203 13.1696 20.3203 13.1302 20.2809L9.42599 16.5826C9.26804 16.4249 9.01197 16.4249 8.85403 16.5826L7.69658 17.7382C7.53864 17.8959 7.53864 18.1515 7.69658 18.3092L12.9157 23.5201C13.0737 23.6778 13.3297 23.6777 13.4877 23.5201L17.1917 19.8218C17.2312 19.7824 17.2952 19.7824 17.3347 19.8218L21.0388 23.5201C21.1968 23.6777 21.4529 23.6777 21.6108 23.5201L26.8298 18.3093C26.9877 18.1516 26.9877 17.8959 26.8298 17.7383Z" fill="white"/>
</svg>
