<svg width="34" height="34" viewBox="0 0 34 34" fill="none" xmlns="http://www.w3.org/2000/svg">
<path opacity="0.2" d="M17 34C26.3888 34 34 26.3888 34 17C34 7.61116 26.3888 0 17 0C7.61116 0 0 7.61116 0 17C0 26.3888 7.61116 34 17 34Z" fill="#686868"/>
<path d="M22.6918 21.8095L19.4273 18.545C20.1399 17.6083 20.47 16.436 20.351 15.2651C20.232 14.0942 19.6727 13.0123 18.7862 12.2381C17.8998 11.464 16.7523 11.0554 15.5761 11.0952C14.3999 11.1349 13.2826 11.6199 12.4504 12.4521C11.6182 13.2843 11.1332 14.4016 11.0935 15.5778C11.0537 16.7541 11.4623 17.9015 12.2364 18.7879C13.0106 19.6744 14.0925 20.2337 15.2634 20.3527C16.4343 20.4718 17.6066 20.1416 18.5433 19.429L21.8078 22.6935C21.926 22.8088 22.0847 22.8734 22.2498 22.8734C22.415 22.8734 22.5736 22.8088 22.6918 22.6935C22.8089 22.5762 22.8747 22.4173 22.8747 22.2515C22.8747 22.0858 22.8089 21.9268 22.6918 21.8095V21.8095ZM12.3748 15.75C12.3748 15.0825 12.5728 14.43 12.9436 13.875C13.3145 13.32 13.8416 12.8874 14.4583 12.6319C15.075 12.3765 15.7536 12.3097 16.4082 12.4399C17.0629 12.5701 17.6643 12.8915 18.1363 13.3635C18.6083 13.8355 18.9297 14.4369 19.06 15.0916C19.1902 15.7463 19.1234 16.4249 18.8679 17.0416C18.6125 17.6583 18.1799 18.1854 17.6249 18.5562C17.0699 18.9271 16.4173 19.125 15.7498 19.125C14.855 19.124 13.9972 18.768 13.3645 18.1353C12.7318 17.5026 12.3759 16.6448 12.3748 15.75V15.75Z" fill="#ABABAB"/>
</svg>
