<svg width="34" height="35" viewBox="0 0 34 35" fill="none" xmlns="http://www.w3.org/2000/svg">
<path opacity="0.2" d="M17 34.6667C26.3888 34.6667 34 27.0556 34 17.6667C34 8.27791 26.3888 0.666748 17 0.666748C7.61116 0.666748 0 8.27791 0 17.6667C0 27.0556 7.61116 34.6667 17 34.6667Z" fill="#5943E3"/>
<path d="M25.1573 10.1892C23.657 9.50077 22.0482 8.9936 20.3661 8.70312C20.3355 8.69752 20.3049 8.71153 20.2891 8.73955C20.0822 9.10755 19.853 9.58763 19.6925 9.96498C17.8833 9.69412 16.0833 9.69412 14.3112 9.96498C14.1507 9.57924 13.9132 9.10755 13.7054 8.73955C13.6896 8.71246 13.659 8.69845 13.6284 8.70312C11.9472 8.99267 10.3384 9.49984 8.83718 10.1892C8.82419 10.1948 8.81305 10.2041 8.80565 10.2162C5.75409 14.7752 4.91814 19.2221 5.32823 23.6139C5.33009 23.6354 5.34215 23.6559 5.35885 23.669C7.37218 25.1476 9.32244 26.0452 11.2365 26.6401C11.2671 26.6495 11.2996 26.6383 11.3191 26.613C11.7718 25.9947 12.1754 25.3428 12.5215 24.6572C12.5419 24.617 12.5224 24.5694 12.4807 24.5535C11.8405 24.3107 11.2309 24.0146 10.6445 23.6784C10.5982 23.6513 10.5944 23.5849 10.6371 23.5532C10.7605 23.4607 10.8839 23.3645 11.0018 23.2674C11.0231 23.2496 11.0528 23.2459 11.0778 23.2571C14.9301 25.0159 19.1005 25.0159 22.9073 23.2571C22.9324 23.2449 22.9621 23.2487 22.9843 23.2664C23.1022 23.3636 23.2256 23.4607 23.3499 23.5532C23.3926 23.5849 23.3898 23.6513 23.3434 23.6784C22.757 24.0211 22.1474 24.3107 21.5063 24.5526C21.4646 24.5685 21.446 24.617 21.4665 24.6572C21.8199 25.3418 22.2235 25.9938 22.6679 26.6121C22.6865 26.6383 22.7199 26.6495 22.7505 26.6401C24.6739 26.0452 26.6241 25.1476 28.6374 23.669C28.6551 23.6559 28.6662 23.6363 28.6681 23.6148C29.1589 18.5375 27.846 14.127 25.1879 10.2172C25.1814 10.2041 25.1703 10.1948 25.1573 10.1892Z" fill="#5865F2"/>
<path d="M10.9814 18.5672C10.9814 19.8749 11.9371 20.9396 13.0969 20.9396C14.2751 20.9396 15.2122 19.8749 15.2122 18.5672C15.2308 17.2689 14.2844 16.1948 13.0969 16.1948C11.9185 16.1948 10.9814 17.2596 10.9814 18.5672Z" fill="#2A2545"/>
<path d="M18.8028 18.5672C18.8028 19.8749 19.7585 20.9396 20.9182 20.9396C22.1058 20.9396 23.0336 19.8749 23.0336 18.5672C23.0522 17.2689 22.1058 16.1948 20.9182 16.1948C19.7399 16.1948 18.8028 17.2596 18.8028 18.5672Z" fill="#2A2545"/>
</svg>
