<svg width="22" height="22" viewBox="0 0 22 22" fill="none" xmlns="http://www.w3.org/2000/svg">
<path d="M17.8606 16.8832L13.6484 12.6709C14.5678 11.4623 14.9938 9.94957 14.8403 8.43877C14.6867 6.92796 13.965 5.53189 12.8212 4.53299C11.6773 3.5341 10.1968 3.00696 8.67907 3.05823C7.16134 3.1095 5.71975 3.73534 4.64594 4.80915C3.57213 5.88296 2.94629 7.32455 2.89502 8.84227C2.84375 10.36 3.37089 11.8405 4.36978 12.9844C5.36868 14.1282 6.76475 14.8499 8.27556 15.0035C9.78636 15.157 11.2991 14.731 12.5077 13.8116L16.72 18.0238C16.8725 18.1726 17.0772 18.2559 17.2903 18.2559C17.5034 18.2559 17.7081 18.1726 17.8606 18.0238C18.0118 17.8725 18.0966 17.6674 18.0966 17.4535C18.0966 17.2396 18.0118 17.0345 17.8606 16.8832ZM4.54837 9.06448C4.54837 8.20318 4.80378 7.36121 5.28229 6.64506C5.76081 5.92891 6.44094 5.37074 7.23669 5.04114C8.03243 4.71153 8.90804 4.62529 9.7528 4.79332C10.5976 4.96135 11.3735 5.37611 11.9825 5.98515C12.5916 6.59418 13.0063 7.37014 13.1744 8.2149C13.3424 9.05965 13.2562 9.93526 12.9266 10.731C12.5969 11.5267 12.0388 12.2069 11.3226 12.6854C10.6065 13.1639 9.76452 13.4193 8.90321 13.4193C7.74865 13.418 6.64178 12.9587 5.82538 12.1423C5.00899 11.3259 4.54974 10.219 4.54837 9.06448Z" fill="white" fill-opacity="0.6"/>
</svg>
