<svg width="439" height="701" viewBox="0 0 439 701" fill="none" xmlns="http://www.w3.org/2000/svg">
<path opacity="0.5" fill-rule="evenodd" clip-rule="evenodd" d="M349 243C371.92 243 390.5 224.42 390.5 201.5C390.5 178.58 371.92 160 349 160C326.08 160 307.5 178.58 307.5 201.5C307.5 224.42 326.08 243 349 243Z" fill="#003E52"/>
<path d="M369.309 190.848C369.34 191.309 369.34 191.771 369.34 192.237C369.34 206.438 358.799 222.815 339.524 222.815V222.807C333.83 222.815 328.254 221.142 323.461 217.989C324.289 218.091 325.121 218.142 325.955 218.144C330.674 218.148 335.257 216.525 338.97 213.535C334.486 213.447 330.553 210.449 329.18 206.072C330.751 206.382 332.369 206.318 333.911 205.886C329.022 204.874 325.505 200.468 325.505 195.353C325.505 195.306 325.505 195.261 325.505 195.216C326.962 196.049 328.592 196.51 330.261 196.561C325.656 193.405 324.237 187.123 327.018 182.212C332.338 188.926 340.188 193.008 348.614 193.44C347.77 189.707 348.924 185.796 351.646 183.172C355.867 179.103 362.505 179.311 366.472 183.638C368.819 183.163 371.068 182.28 373.127 181.029C372.345 183.516 370.707 185.63 368.52 186.972C370.597 186.721 372.627 186.151 374.538 185.281C373.131 187.443 371.359 189.326 369.309 190.848Z" fill="#1D9BF0"/>
<path opacity="0.2" d="M369.5 564C392.972 564 412 544.972 412 521.5C412 498.028 392.972 479 369.5 479C346.028 479 327 498.028 327 521.5C327 544.972 346.028 564 369.5 564Z" fill="#FEDB31"/>
<mask id="mask0_68_1742" style="mask-type:luminance" maskUnits="userSpaceOnUse" x="327" y="479" width="85" height="85">
<path d="M369.5 564C392.972 564 412 544.972 412 521.5C412 498.028 392.972 479 369.5 479C346.028 479 327 498.028 327 521.5C327 544.972 346.028 564 369.5 564Z" fill="white"/>
</mask>
<g mask="url(#mask0_68_1742)">
<path fill-rule="evenodd" clip-rule="evenodd" d="M381.983 506.243L384.757 509.017L373.661 520.113L370.887 517.339L381.983 506.243ZM365.339 522.887L368.113 525.661L357.017 536.757L354.243 533.983L365.339 522.887ZM365.339 520.113L368.113 517.339L357.017 506.243L354.243 509.017L365.339 520.113ZM384.757 533.983L381.983 536.757L370.887 525.661L373.661 522.887L384.757 533.983ZM369.5 524.274L372.274 521.5L369.5 518.726L366.726 521.5L369.5 524.274Z" fill="#FEDB31"/>
</g>
<path opacity="0.2" d="M51 701C79.1665 701 102 678.167 102 650C102 621.833 79.1665 599 51 599C22.8335 599 0 621.833 0 650C0 678.167 22.8335 701 51 701Z" fill="#5943E3"/>
<path d="M75.4715 627.567C70.9707 625.502 66.1443 623.981 61.098 623.109C61.0061 623.092 60.9143 623.134 60.867 623.218C60.2463 624.322 59.5587 625.763 59.0772 626.895C53.6496 626.082 48.2498 626.082 42.9335 626.895C42.4519 625.737 41.7394 624.322 41.1159 623.218C41.0685 623.137 40.9767 623.095 40.8848 623.109C35.8413 623.978 31.0149 625.499 26.5113 627.567C26.4723 627.584 26.4389 627.612 26.4167 627.648C17.262 641.325 14.7542 654.666 15.9844 667.841C15.99 667.906 16.0262 667.968 16.0763 668.007C22.1163 672.442 27.9671 675.135 33.7092 676.92C33.8011 676.948 33.8985 676.915 33.9569 676.839C35.3152 674.984 36.5261 673.028 37.5642 670.971C37.6255 670.851 37.567 670.708 37.4418 670.66C35.5212 669.932 33.6925 669.044 31.9334 668.035C31.7942 667.954 31.7831 667.755 31.9111 667.659C32.2813 667.382 32.6516 667.093 33.005 666.802C33.069 666.749 33.1581 666.737 33.2333 666.771C44.7899 672.047 57.3014 672.047 68.7217 666.771C68.7969 666.735 68.886 666.746 68.9527 666.799C69.3063 667.09 69.6765 667.382 70.0495 667.659C70.1775 667.755 70.1691 667.954 70.03 668.035C68.2708 669.063 66.4421 669.932 64.5188 670.658C64.3936 670.705 64.3379 670.851 64.3991 670.971C65.4596 673.025 66.6704 674.981 68.0036 676.836C68.0593 676.915 68.1595 676.948 68.2514 676.92C74.0213 675.135 79.8721 672.442 85.9121 668.007C85.965 667.968 85.9984 667.909 86.004 667.844C87.4763 652.612 83.5378 639.381 75.5633 627.651C75.5438 627.612 75.5105 627.584 75.4715 627.567Z" fill="#5865F2"/>
<path d="M32.9436 652.702C32.9436 656.625 35.8105 659.819 39.2898 659.819C42.8247 659.819 45.636 656.625 45.636 652.702C45.6917 648.807 42.8525 645.584 39.2898 645.584C35.7549 645.584 32.9436 648.779 32.9436 652.702Z" fill="#2A2545"/>
<path d="M56.4078 652.702C56.4078 656.625 59.2747 659.819 62.7539 659.819C66.3167 659.819 69.1002 656.625 69.1002 652.702C69.1558 648.807 66.3167 645.584 62.7539 645.584C59.219 645.584 56.4078 648.779 56.4078 652.702Z" fill="#2A2545"/>
<path opacity="0.2" d="M409 60C425.569 60 439 46.5685 439 30C439 13.4315 425.569 0 409 0C392.431 0 379 13.4315 379 30C379 46.5685 392.431 60 409 60Z" fill="#5943E3"/>
<path d="M409.001 18.6171L409.001 11.9456" stroke="url(#paint0_linear_68_1742)" stroke-width="1.25"/>
<path d="M399.406 14.4221L402.605 19.6655" stroke="url(#paint1_linear_68_1742)" stroke-width="1.25"/>
<path d="M418.597 14.4221L415.399 19.6655" stroke="white" stroke-width="1.25"/>
<path d="M395.213 31.2006C395.213 27.6043 396.666 24.1554 399.251 21.6124C401.837 19.0695 405.344 17.6409 409 17.6409C412.657 17.6409 416.164 19.0695 418.749 21.6124C421.335 24.1553 422.787 27.6043 422.787 31.2006L419.683 31.2006C419.683 28.4141 418.557 25.7417 416.554 23.7714C414.551 21.8011 411.833 20.6941 409 20.6941C406.167 20.6941 403.45 21.8011 401.447 23.7714C399.443 25.7417 398.318 28.4141 398.318 31.2006L395.213 31.2006Z" fill="url(#paint2_linear_68_1742)"/>
<path fill-rule="evenodd" clip-rule="evenodd" d="M409.002 22.0002C403.836 22.0002 399.647 26.1195 399.647 31.2008C399.647 36.0753 403.502 40.0645 408.376 40.3811V45.8826H409.626V40.3812C414.502 40.0654 418.357 36.0759 418.357 31.2008C418.357 26.1195 414.169 22.0002 409.002 22.0002ZM409.002 25.0619C412.449 25.0619 415.244 27.8104 415.244 31.2008C415.244 34.5913 412.449 37.3398 409.002 37.3398C405.555 37.3398 402.76 34.5913 402.76 31.2008C402.76 27.8104 405.555 25.0619 409.002 25.0619Z" fill="url(#paint3_linear_68_1742)"/>
<path opacity="0.2" d="M263.748 388.501C263.748 414.047 243.039 434.756 217.493 434.756C191.947 434.756 171.238 414.047 171.238 388.501C171.238 362.955 191.947 342.246 217.493 342.246C243.039 342.246 263.748 362.955 263.748 388.501" fill="#505050"/>
<g opacity="0.8">
<path d="M217.345 367.039L217.06 368.01V396.188L217.345 396.473L230.425 388.742L217.345 367.039Z" fill="white"/>
<path d="M217.345 367.039L204.265 388.742L217.345 396.473V382.796V367.039Z" fill="white"/>
<path d="M217.345 400.729L217.184 400.925V410.963L217.345 411.433L230.433 393.001L217.345 400.729Z" fill="white"/>
<path d="M217.345 411.433V400.729L204.265 393.001L217.345 411.433Z" fill="white"/>
<path d="M217.345 396.473L230.425 388.742L217.345 382.796V396.473Z" fill="white"/>
<path d="M204.265 388.742L217.345 396.473V382.796L204.265 388.742Z" fill="white"/>
</g>
<path opacity="0.5" fill-rule="evenodd" clip-rule="evenodd" d="M184 134C217.137 134 244 107.137 244 74C244 40.8629 217.137 14 184 14C150.863 14 124 40.8629 124 74C124 107.137 150.863 134 184 134Z" fill="#003452"/>
<path fill-rule="evenodd" clip-rule="evenodd" d="M205.115 63.0495C193.966 51.9184 175.89 51.9184 164.741 63.0495L163.269 64.5199C162.711 65.0765 162.711 65.9788 163.269 66.5354L167.859 71.118C168.137 71.3963 168.589 71.3963 168.868 71.118L170.845 69.1438C178.623 61.3784 191.233 61.3784 199.011 69.1438L200.858 70.9873C201.136 71.2656 201.588 71.2656 201.867 70.9873L206.457 66.4046C207.014 65.8481 207.014 64.9457 206.457 64.3892L205.115 63.0495ZM218.692 76.6063L214.607 72.5277C214.049 71.9711 213.146 71.9711 212.588 72.5277L199.515 85.5802C199.375 85.7193 199.149 85.7193 199.01 85.5802L185.937 72.5274L185.937 72.5274C185.379 71.9709 184.475 71.9709 183.918 72.5275L170.845 85.5802C170.706 85.7193 170.48 85.7193 170.34 85.5802L157.267 72.5275C156.709 71.9709 155.805 71.9709 155.248 72.5275L151.163 76.6061C150.606 77.1626 150.606 78.065 151.163 78.6215L169.583 97.0127C170.141 97.5692 171.045 97.5692 171.602 97.0127L184.675 83.9601C184.815 83.821 185.041 83.821 185.18 83.9601L198.253 97.0127C198.811 97.5692 199.714 97.5692 200.272 97.0127L218.692 78.6218C219.249 78.0652 219.249 77.1629 218.692 76.6063Z" fill="white"/>
<path d="M380 36L243 65" stroke="white" stroke-opacity="0.08" stroke-width="4"/>
<path d="M325 235L242 350" stroke="white" stroke-opacity="0.08" stroke-width="4"/>
<path d="M190 425L80 608" stroke="white" stroke-opacity="0.08" stroke-width="4"/>
<path d="M252 419L337 494" stroke="white" stroke-opacity="0.08" stroke-width="4"/>
<path d="M98 630L329 533" stroke="white" stroke-opacity="0.08" stroke-width="4"/>
<path d="M232 110L316 176" stroke="white" stroke-opacity="0.08" stroke-width="4"/>
<defs>
<linearGradient id="paint0_linear_68_1742" x1="409.501" y1="11.0277" x2="409.501" y2="18.6171" gradientUnits="userSpaceOnUse">
<stop stop-color="white"/>
<stop offset="0.688578" stop-color="#AF87E4"/>
</linearGradient>
<linearGradient id="paint1_linear_68_1742" x1="401.005" y1="14.4221" x2="400.33" y2="19.6684" gradientUnits="userSpaceOnUse">
<stop stop-color="white"/>
<stop offset="0.590456" stop-color="#CCA5F6"/>
</linearGradient>
<linearGradient id="paint2_linear_68_1742" x1="425.444" y1="27.0058" x2="395.239" y2="31.9899" gradientUnits="userSpaceOnUse">
<stop stop-color="#A77EDE"/>
<stop offset="0.235883" stop-color="white"/>
<stop offset="0.786227" stop-color="#A477E0"/>
<stop offset="1" stop-color="#49436F"/>
</linearGradient>
<linearGradient id="paint3_linear_68_1742" x1="416.915" y1="22.8113" x2="409.235" y2="45.9599" gradientUnits="userSpaceOnUse">
<stop offset="0.0497046" stop-color="white"/>
<stop offset="0.379723" stop-color="#AA80E2"/>
<stop offset="1" stop-color="#5A4D83"/>
</linearGradient>
</defs>
</svg>
